# xmcd
# Track frame offsets:
# 150
# 11495
# 23955
# 38544
# 53225
# 66062
# 82588
# 97632
# 110688
# 125676
# 140450
# 155370
# 168020
# 181825
#
# Disc length: 2629 seconds
# Revision: 0
# Processed by: cddbd v1.4PL0 Copyright (c) Steve Scherf et al.
# Submitted via: VisiTrax 2.9.5.180 - For more info visit www.synapsa.com
#
DISCID=9d0a430e
DTITLE=JW Houston - Sidewinder
DYEAR=1900
DGENRE=
TTITLE0=Out of the blue
TTITLE1=Mess me around
TTITLE2=Plug my heart into the jukebox
TTITLE3=Proper introduction to the blues
TTITLE4=Mr. Right Wrong
TTITLE5=Party for two
TTITLE6=Mighty oak
TTITLE7=The fool in me
TTITLE8=Ain't enough roses
TTITLE9=Just where did I go wrong
TTITLE10=I'm into you
TTITLE11=I'm looking forward (to not looking back)
TTITLE12=Honky tonkin' Einstein
TTITLE13=My cowgirl mansion
EXTD=
EXTT0=
EXTT1=
EXTT2=
EXTT3=
EXTT4=
EXTT5=
EXTT6=
EXTT7=
EXTT8=
EXTT9=
EXTT10=
EXTT11=
EXTT12=
EXTT13=
PLAYORDER=
